<svg width="256" height="256" viewBox="0 0 256 256" fill="none" xmlns="http://www.w3.org/2000/svg">
<rect width="256" height="256" rx="50" fill="url(#paint0_linear_632_11)"/>
<path d="M160.658 148.287H154.17L151.871 146.071C157.003 140.113 160.754 133.094 162.855 125.518C164.956 117.942 165.355 109.995 164.024 102.247C160.165 79.4317 141.114 61.2125 118.121 58.4222C110.038 57.4001 101.827 58.2397 94.1187 60.8767C86.4099 63.5137 79.4068 67.8782 73.6454 73.6363C67.884 79.3943 63.517 86.3932 60.8784 94.0975C58.2399 101.802 57.3998 110.007 58.4224 118.086C61.2144 141.065 79.4442 160.105 102.273 163.962C110.026 165.292 117.977 164.893 125.558 162.793C133.138 160.693 140.161 156.945 146.123 151.816L148.34 154.114V160.597L183.24 195.476C186.606 198.841 192.108 198.841 195.475 195.476C198.842 192.112 198.842 186.613 195.475 183.248L160.658 148.287ZM111.388 148.287C90.9406 148.287 74.4351 131.791 74.4351 111.356C74.4351 90.9212 90.9406 74.4255 111.388 74.4255C131.835 74.4255 148.34 90.9212 148.34 111.356C148.34 131.791 131.835 148.287 111.388 148.287Z" fill="white"/>
<defs>
<linearGradient id="paint0_linear_632_11" x1="256" y1="0" x2="0" y2="256" gradientUnits="userSpaceOnUse">
<stop stop-color="#3D81E6"/>
<stop offset="0.545" stop-color="#3F66E5"/>
<stop offset="1" stop-color="#7150F4"/>
</linearGradient>
</defs>
</svg>
